<svg width="14" height="14" viewBox="0 0 14 14" fill="none" xmlns="http://www.w3.org/2000/svg">
<path fill-rule="evenodd" clip-rule="evenodd" d="M8.23047 7.92308H13.3074C13.5535 7.92308 13.7689 7.7077 13.7689 7.46154V6.53847C13.7689 6.29231 13.5535 6.07693 13.3074 6.07693H8.23047C8.04585 6.07693 7.92278 5.95385 7.92278 5.76924V0.692312C7.92278 0.446159 7.70739 0.230774 7.46124 0.230774H6.53816C6.29201 0.230774 6.07662 0.446159 6.07662 0.692312V5.76924C6.07662 5.95385 5.95355 6.07693 5.76893 6.07693H0.692007C0.445853 6.07693 0.230469 6.29231 0.230469 6.53847V7.46154C0.230469 7.7077 0.445853 7.92308 0.692007 7.92308H5.76893C5.95355 7.92308 6.07662 8.04616 6.07662 8.23077V13.3077C6.07662 13.5539 6.29201 13.7692 6.53816 13.7692H7.46124C7.70739 13.7692 7.92278 13.5539 7.92278 13.3077V8.23077C7.92278 8.04616 8.04585 7.92308 8.23047 7.92308Z" fill="#014486"/>
</svg>
